<svg xmlns="http://www.w3.org/2000/svg" xmlns:xlink="http://www.w3.org/1999/xlink" width="720" zoomAndPan="magnify" viewBox="0 0 540 540.000001" height="720" preserveAspectRatio="xMidYMid meet" version="1.0"><defs><clipPath id="2e3b0e7421"><path d="M 29.46875 0 L 453 0 L 453 539 L 29.46875 539 Z M 29.46875 0 " clip-rule="nonzero"/></clipPath><clipPath id="4e7a45a677"><path d="M 287 0 L 510.828125 0 L 510.828125 281 L 287 281 Z M 287 0 " clip-rule="nonzero"/></clipPath></defs><g clip-path="url(#2e3b0e7421)"><path fill="#ffffff" d="M 439.949219 295.921875 C 434.035156 296.539062 429.730469 301.828125 430.347656 307.746094 C 431.089844 314.824219 431.441406 321.21875 431.441406 327.296875 C 431.441406 432.15625 346.128906 517.460938 241.277344 517.460938 C 136.425781 517.460938 51.113281 432.15625 51.113281 327.296875 C 51.113281 192.472656 206.9375 54.277344 241.289062 25.460938 C 250.023438 32.742188 266.5625 47.03125 286.253906 66.4375 C 290.457031 70.601562 297.296875 70.570312 301.472656 66.324219 C 305.652344 62.09375 305.59375 55.28125 301.363281 51.105469 C 271.285156 21.445312 248.859375 3.816406 247.921875 3.078125 C 243.980469 0.00390625 238.515625 0.0234375 234.632812 3.085938 C 226.253906 9.667969 29.585938 166.046875 29.585938 327.296875 C 29.585938 444.027344 124.554688 538.988281 241.277344 538.988281 C 358 538.988281 452.96875 444.027344 452.96875 327.296875 C 452.96875 320.472656 452.578125 313.34375 451.765625 305.515625 C 451.148438 299.601562 445.808594 295.417969 439.949219 295.921875 Z M 439.949219 295.921875 " fill-opacity="1" fill-rule="nonzero"/></g><g clip-path="url(#4e7a45a677)"><path fill="#ffffff" d="M 405.398438 2.792969 C 401.671875 0.113281 396.625 0.113281 392.898438 2.792969 C 388.609375 5.855469 287.921875 78.8125 287.921875 169.425781 C 287.921875 230.757812 337.816406 280.652344 399.148438 280.652344 C 460.480469 280.652344 510.378906 230.757812 510.378906 169.425781 C 510.378906 78.8125 409.6875 5.855469 405.398438 2.792969 Z M 399.148438 259.125 C 349.6875 259.125 309.449219 218.886719 309.449219 169.425781 C 309.449219 101.996094 377.832031 42.140625 399.148438 25.125 C 420.46875 42.140625 488.847656 101.996094 488.847656 169.425781 C 488.847656 218.886719 448.609375 259.125 399.148438 259.125 Z M 399.148438 259.125 " fill-opacity="1" fill-rule="nonzero"/></g><path fill="#ffffff" d="M 456.558594 158.660156 C 450.613281 158.660156 445.792969 163.480469 445.792969 169.425781 C 445.792969 195.144531 424.867188 216.066406 399.148438 216.066406 C 393.207031 216.066406 388.386719 220.890625 388.386719 226.832031 C 388.386719 232.773438 393.207031 237.597656 399.148438 237.597656 C 436.738281 237.597656 467.320312 207.015625 467.320312 169.425781 C 467.320312 163.480469 462.5 158.660156 456.558594 158.660156 Z M 456.558594 158.660156 " fill-opacity="1" fill-rule="nonzero"/><path fill="#ffffff" d="M 155.164062 302.179688 C 149.222656 302.179688 144.402344 307 144.402344 312.945312 L 144.402344 427.761719 C 144.402344 433.703125 149.222656 438.523438 155.164062 438.523438 C 161.109375 438.523438 165.929688 433.703125 165.929688 427.761719 L 165.929688 381.117188 L 183.867188 381.117188 C 205.636719 381.117188 223.335938 363.414062 223.335938 341.648438 C 223.335938 319.882812 205.636719 302.179688 183.867188 302.179688 Z M 201.808594 341.648438 C 201.808594 351.542969 193.765625 359.589844 183.867188 359.589844 L 165.929688 359.589844 L 165.929688 323.707031 L 183.867188 323.707031 C 193.765625 323.707031 201.808594 331.753906 201.808594 341.648438 Z M 201.808594 341.648438 " fill-opacity="1" fill-rule="nonzero"/><path fill="#ffffff" d="M 327.390625 438.523438 C 333.332031 438.523438 338.152344 433.703125 338.152344 427.761719 L 338.152344 312.945312 C 338.152344 307 333.332031 302.179688 327.390625 302.179688 C 321.445312 302.179688 316.625 307 316.625 312.945312 L 316.625 359.589844 L 280.746094 359.589844 L 280.746094 312.945312 C 280.746094 307 275.921875 302.179688 269.980469 302.179688 C 264.039062 302.179688 259.21875 307 259.21875 312.945312 L 259.21875 427.761719 C 259.21875 433.703125 264.039062 438.523438 269.980469 438.523438 C 275.921875 438.523438 280.746094 433.703125 280.746094 427.761719 L 280.746094 381.117188 L 316.625 381.117188 L 316.625 427.761719 C 316.625 433.703125 321.445312 438.523438 327.390625 438.523438 Z M 327.390625 438.523438 " fill-opacity="1" fill-rule="nonzero"/></svg>