<svg xmlns="http://www.w3.org/2000/svg" xmlns:xlink="http://www.w3.org/1999/xlink" width="720" zoomAndPan="magnify" viewBox="0 0 540 540.000001" height="720" preserveAspectRatio="xMidYMid meet" version="1.0"><defs><clipPath id="eac91c8c68"><path d="M 105.605469 0 L 434.246094 0 L 434.246094 539 L 105.605469 539 Z M 105.605469 0 " clip-rule="nonzero"/></clipPath></defs><g clip-path="url(#eac91c8c68)"><path fill="#ffffff" d="M 225.769531 116.515625 L 209.339844 106.066406 L 213.414062 118.550781 C 214.269531 121.179688 212.824219 124.070312 210.195312 124.925781 C 209.667969 125.125 209.140625 125.1875 208.617188 125.1875 C 206.382812 125.1875 204.476562 123.808594 203.820312 121.707031 L 195.933594 97.523438 L 174.773438 84.050781 L 174.773438 109.152344 L 191.003906 128.804688 C 192.777344 130.972656 192.449219 134.191406 190.347656 135.964844 C 189.425781 136.6875 188.308594 137.148438 187.128906 137.148438 C 185.617188 137.148438 184.171875 136.492188 183.183594 135.308594 L 174.839844 125.1875 L 174.839844 144.640625 C 174.839844 147.464844 172.605469 149.699219 169.777344 149.699219 C 166.953125 149.699219 164.71875 147.402344 164.71875 144.640625 L 164.71875 125.1875 L 156.371094 135.308594 C 155.386719 136.492188 154.007812 137.148438 152.429688 137.148438 C 151.246094 137.148438 150.128906 136.753906 149.210938 135.964844 C 148.15625 135.113281 147.5 133.863281 147.371094 132.550781 C 147.238281 131.234375 147.632812 129.921875 148.488281 128.867188 L 164.652344 109.21875 L 164.652344 84.117188 L 143.492188 97.589844 L 135.605469 121.773438 C 134.949219 123.875 132.976562 125.253906 130.808594 125.253906 C 130.285156 125.253906 129.757812 125.1875 129.230469 124.992188 C 127.917969 124.597656 126.867188 123.675781 126.273438 122.496094 C 125.683594 121.3125 125.550781 119.929688 125.945312 118.617188 L 130.019531 106.132812 L 113.589844 116.578125 C 112.804688 117.105469 111.816406 117.367188 110.898438 117.367188 C 109.121094 117.367188 107.546875 116.515625 106.625 115.003906 C 105.902344 113.886719 105.640625 112.503906 105.96875 111.191406 C 106.230469 109.878906 107.019531 108.761719 108.203125 108.035156 L 124.632812 97.589844 L 111.554688 96.011719 C 108.792969 95.683594 106.824219 93.121094 107.152344 90.359375 C 107.480469 87.796875 109.648438 85.890625 112.210938 85.890625 C 112.410156 85.890625 112.605469 85.890625 112.804688 85.957031 L 138.039062 89.046875 L 160.25 74.917969 L 137.972656 60.65625 L 112.738281 63.746094 C 112.539062 63.746094 112.34375 63.808594 112.144531 63.808594 C 109.582031 63.808594 107.414062 61.90625 107.085938 59.339844 C 106.757812 56.582031 108.726562 54.019531 111.488281 53.691406 L 124.566406 52.113281 L 108.136719 41.664062 C 107.019531 40.941406 106.230469 39.824219 105.902344 38.507812 C 105.640625 37.195312 105.835938 35.816406 106.558594 34.699219 C 107.480469 33.253906 109.121094 32.332031 110.832031 32.332031 C 111.816406 32.332031 112.738281 32.59375 113.527344 33.121094 L 129.953125 43.570312 L 125.878906 31.019531 C 125.484375 29.703125 125.550781 28.390625 126.207031 27.140625 C 126.800781 25.957031 127.851562 25.039062 129.167969 24.644531 C 129.691406 24.511719 130.21875 24.378906 130.742188 24.378906 C 132.976562 24.378906 134.882812 25.761719 135.539062 27.863281 L 143.425781 52.046875 L 164.585938 65.519531 L 164.585938 40.480469 L 148.421875 20.832031 C 147.566406 19.78125 147.171875 18.464844 147.304688 17.152344 C 147.433594 15.773438 148.09375 14.589844 149.144531 13.734375 C 150.0625 13.011719 151.179688 12.550781 152.363281 12.550781 C 153.875 12.550781 155.320312 13.207031 156.308594 14.390625 L 164.652344 24.511719 L 164.652344 5.058594 C 164.585938 2.300781 166.886719 0 169.648438 0 C 172.40625 0 174.707031 2.300781 174.707031 5.058594 L 174.707031 24.511719 L 183.054688 14.390625 C 184.039062 13.207031 185.417969 12.550781 186.996094 12.550781 C 188.179688 12.550781 189.296875 12.945312 190.214844 13.734375 C 191.269531 14.589844 191.925781 15.835938 192.054688 17.152344 C 192.1875 18.464844 191.792969 19.847656 190.9375 20.832031 L 174.707031 40.480469 L 174.707031 65.585938 L 195.867188 52.113281 L 203.753906 27.929688 C 204.410156 25.828125 206.382812 24.445312 208.550781 24.445312 C 209.078125 24.445312 209.601562 24.511719 210.128906 24.710938 C 211.441406 25.101562 212.429688 26.023438 213.085938 27.207031 C 213.675781 28.390625 213.808594 29.769531 213.414062 31.082031 L 209.339844 43.636719 L 225.769531 33.1875 C 226.558594 32.660156 227.542969 32.398438 228.460938 32.398438 C 230.238281 32.398438 231.8125 33.253906 232.734375 34.765625 C 233.457031 35.882812 233.71875 37.261719 233.390625 38.574219 C 233.128906 39.890625 232.273438 41.007812 231.15625 41.730469 L 214.726562 52.179688 L 227.804688 53.753906 C 229.121094 53.953125 230.367188 54.609375 231.15625 55.660156 C 232.011719 56.710938 232.339844 58.027344 232.207031 59.40625 C 231.878906 61.90625 229.710938 63.875 227.148438 63.875 C 226.953125 63.875 226.753906 63.875 226.492188 63.808594 L 201.257812 60.722656 L 179.042969 74.851562 L 201.257812 88.980469 L 226.492188 85.890625 C 226.6875 85.890625 226.886719 85.890625 227.082031 85.890625 C 229.644531 85.890625 231.8125 87.796875 232.144531 90.359375 C 232.273438 91.671875 231.945312 93.054688 231.089844 94.105469 C 230.238281 95.15625 229.054688 95.878906 227.738281 96.011719 L 214.664062 97.589844 L 231.089844 108.035156 C 232.207031 108.761719 232.996094 109.878906 233.324219 111.191406 C 233.589844 112.503906 233.390625 113.886719 232.667969 115.003906 C 231.75 116.449219 230.105469 117.367188 228.398438 117.367188 C 227.542969 117.304688 226.558594 117.039062 225.769531 116.515625 Z M 372.25 467.042969 C 372.25 506.734375 339.984375 539 300.289062 539 C 260.597656 539 228.332031 506.734375 228.332031 467.042969 C 228.332031 446.144531 237.203125 426.695312 252.84375 412.957031 L 252.84375 82.867188 C 252.84375 56.710938 274.136719 35.421875 300.289062 35.421875 C 326.445312 35.421875 347.738281 56.710938 347.738281 82.867188 L 347.738281 412.957031 C 363.378906 426.695312 372.25 446.144531 372.25 467.042969 Z M 356.871094 467.042969 C 356.871094 449.628906 348.984375 433.460938 335.316406 422.617188 L 332.425781 420.320312 L 332.425781 82.867188 C 332.425781 65.191406 318.035156 50.734375 300.289062 50.734375 C 282.613281 50.734375 268.15625 65.125 268.15625 82.867188 L 268.15625 420.320312 L 265.265625 422.617188 C 251.527344 433.460938 243.707031 449.628906 243.707031 467.042969 C 243.707031 498.257812 269.074219 523.625 300.289062 523.625 C 331.503906 523.625 356.871094 498.257812 356.871094 467.042969 Z M 327.496094 432.542969 L 319.808594 426.429688 L 319.808594 359.007812 C 319.808594 348.230469 311.066406 339.554688 300.355469 339.554688 C 289.644531 339.554688 280.902344 348.292969 280.902344 359.007812 L 280.902344 426.363281 L 273.214844 432.476562 C 261.976562 441.347656 255.800781 454.820312 256.523438 469.210938 C 257.640625 492.605469 277.421875 511.203125 300.882812 510.941406 C 324.933594 510.679688 344.453125 491.09375 344.453125 466.976562 C 344.253906 453.503906 338.144531 440.953125 327.496094 432.542969 Z M 429.421875 407.4375 L 377.113281 407.4375 C 374.417969 407.4375 372.183594 409.605469 372.183594 412.367188 C 372.183594 415.0625 374.351562 417.296875 377.113281 417.296875 L 429.421875 417.296875 C 432.117188 417.296875 434.351562 415.128906 434.351562 412.367188 C 434.351562 409.605469 432.183594 407.4375 429.421875 407.4375 Z M 377.113281 369.847656 L 398.339844 369.847656 C 401.03125 369.847656 403.265625 367.679688 403.265625 364.921875 C 403.265625 362.226562 401.097656 359.992188 398.339844 359.992188 L 377.113281 359.992188 C 374.417969 359.992188 372.183594 362.160156 372.183594 364.921875 C 372.25 367.613281 374.417969 369.847656 377.113281 369.847656 Z M 429.421875 312.609375 L 377.113281 312.609375 C 374.417969 312.609375 372.183594 314.777344 372.183594 317.539062 C 372.183594 320.234375 374.351562 322.46875 377.113281 322.46875 L 429.421875 322.46875 C 432.117188 322.46875 434.351562 320.300781 434.351562 317.539062 C 434.351562 314.777344 432.183594 312.609375 429.421875 312.609375 Z M 377.113281 275.019531 L 398.339844 275.019531 C 401.03125 275.019531 403.265625 272.851562 403.265625 270.09375 C 403.265625 267.398438 401.097656 265.164062 398.339844 265.164062 L 377.113281 265.164062 C 374.417969 265.164062 372.183594 267.332031 372.183594 270.09375 C 372.25 272.851562 374.417969 275.019531 377.113281 275.019531 Z M 377.113281 132.8125 L 429.421875 132.8125 C 432.117188 132.8125 434.351562 130.644531 434.351562 127.882812 C 434.351562 125.1875 432.183594 122.953125 429.421875 122.953125 L 377.113281 122.953125 C 374.417969 122.953125 372.183594 125.125 372.183594 127.882812 C 372.25 130.578125 374.417969 132.8125 377.113281 132.8125 Z M 429.421875 217.78125 L 377.113281 217.78125 C 374.417969 217.78125 372.183594 219.949219 372.183594 222.710938 C 372.183594 225.472656 374.351562 227.640625 377.113281 227.640625 L 429.421875 227.640625 C 432.117188 227.640625 434.351562 225.472656 434.351562 222.710938 C 434.351562 219.949219 432.183594 217.78125 429.421875 217.78125 Z M 377.113281 180.191406 L 398.339844 180.191406 C 401.03125 180.191406 403.265625 178.023438 403.265625 175.265625 C 403.265625 172.570312 401.097656 170.335938 398.339844 170.335938 L 377.113281 170.335938 C 374.417969 170.335938 372.183594 172.503906 372.183594 175.265625 C 372.25 178.023438 374.417969 180.191406 377.113281 180.191406 Z M 377.113281 180.191406 " fill-opacity="1" fill-rule="nonzero"/></g></svg>