<svg xmlns="http://www.w3.org/2000/svg" xmlns:xlink="http://www.w3.org/1999/xlink" width="720" zoomAndPan="magnify" viewBox="0 0 540 540.000001" height="720" preserveAspectRatio="xMidYMid meet" version="1.0"><defs><clipPath id="f612eb3309"><path d="M 6.421875 20.417969 L 401.75 20.417969 L 401.75 416 L 6.421875 416 Z M 6.421875 20.417969 " clip-rule="nonzero"/></clipPath><clipPath id="d840dbaef0"><path d="M 168 441 L 240 441 L 240 517.828125 L 168 517.828125 Z M 168 441 " clip-rule="nonzero"/></clipPath><clipPath id="b182d53881"><path d="M 332.160156 274.742188 L 485 274.742188 L 485 517.953125 L 332.160156 517.953125 Z M 332.160156 274.742188 " clip-rule="nonzero"/></clipPath><clipPath id="dcc7a282c8"><path d="M 406 428 L 533.007812 428 L 533.007812 461 L 406 461 Z M 406 428 " clip-rule="nonzero"/></clipPath><clipPath id="3cf3566804"><path d="M 406 386 L 533.007812 386 L 533.007812 418 L 406 418 Z M 406 386 " clip-rule="nonzero"/></clipPath><clipPath id="dff032165d"><path d="M 406 428 L 533.007812 428 L 533.007812 461 L 406 461 Z M 406 428 " clip-rule="nonzero"/></clipPath><clipPath id="2e6abf2e6b"><path d="M 406 386 L 533.007812 386 L 533.007812 418 L 406 418 Z M 406 386 " clip-rule="nonzero"/></clipPath></defs><g clip-path="url(#f612eb3309)"><path fill="#ffffff" d="M 204.082031 415.742188 C 177.402344 415.742188 151.515625 410.515625 127.144531 400.203125 C 103.605469 390.246094 82.46875 376 64.320312 357.851562 C 46.164062 339.699219 31.914062 318.5625 21.960938 295.023438 C 11.648438 270.648438 6.421875 244.761719 6.421875 218.078125 C 6.421875 191.398438 11.648438 165.511719 21.960938 141.136719 C 31.914062 117.601562 46.164062 96.464844 64.320312 78.316406 C 82.46875 60.160156 103.605469 45.910156 127.144531 35.953125 C 151.515625 25.644531 177.402344 20.417969 204.082031 20.417969 C 230.765625 20.417969 256.652344 25.644531 281.027344 35.953125 C 304.5625 45.910156 325.699219 60.160156 343.855469 78.316406 C 362.003906 96.464844 376.253906 117.601562 386.207031 141.136719 C 396.519531 165.511719 401.746094 191.398438 401.746094 218.078125 C 401.746094 244.761719 396.519531 270.648438 386.207031 295.023438 C 376.253906 318.5625 362.003906 339.699219 343.855469 357.851562 C 325.699219 376 304.5625 390.246094 281.027344 400.203125 C 256.652344 410.515625 230.765625 415.742188 204.082031 415.742188 Z M 204.082031 35.988281 C 103.679688 35.988281 21.992188 117.675781 21.992188 218.078125 C 21.992188 318.488281 103.679688 400.171875 204.082031 400.171875 C 304.492188 400.171875 386.175781 318.488281 386.175781 218.078125 C 386.175781 117.675781 304.492188 35.988281 204.082031 35.988281 " fill-opacity="1" fill-rule="evenodd"/></g><path fill="#ffffff" d="M 204.082031 459.046875 C 182.105469 459.046875 160.527344 455.464844 139.9375 448.402344 C 136.769531 447.414062 134.46875 444.460938 134.46875 440.964844 C 134.46875 436.667969 137.953125 433.183594 142.253906 433.183594 C 142.855469 433.183594 143.457031 433.25 144.039062 433.390625 C 144.296875 433.453125 144.550781 433.519531 144.800781 433.609375 C 163.820312 440.15625 183.765625 443.476562 204.082031 443.476562 C 224.410156 443.476562 244.351562 440.15625 263.367188 433.609375 C 263.617188 433.527344 263.863281 433.453125 264.125 433.394531 C 264.710938 433.25 265.3125 433.183594 265.914062 433.183594 C 270.214844 433.183594 273.699219 436.667969 273.699219 440.964844 C 273.699219 444.460938 271.398438 447.414062 268.230469 448.402344 C 247.640625 455.464844 226.0625 459.046875 204.082031 459.046875 " fill-opacity="1" fill-rule="evenodd"/><path fill="#ffffff" d="M 204.082031 370.066406 C 183.570312 370.066406 163.667969 366.046875 144.921875 358.117188 C 126.824219 350.464844 110.570312 339.503906 96.609375 325.550781 C 82.660156 311.59375 71.699219 295.34375 64.042969 277.242188 C 56.121094 258.5 52.097656 238.59375 52.097656 218.078125 C 52.097656 197.566406 56.121094 177.664062 64.042969 158.917969 C 71.699219 140.820312 82.660156 124.566406 96.609375 110.605469 C 110.570312 96.652344 126.824219 85.695312 144.921875 78.039062 C 163.667969 70.109375 183.570312 66.09375 204.082031 66.09375 C 224.597656 66.09375 244.507812 70.109375 263.246094 78.039062 C 281.347656 85.695312 297.597656 96.652344 311.554688 110.605469 C 325.507812 124.566406 336.46875 140.820312 344.125 158.917969 C 352.050781 177.664062 356.070312 197.566406 356.070312 218.078125 C 356.070312 238.59375 352.050781 258.5 344.125 277.242188 C 336.46875 295.34375 325.507812 311.59375 311.554688 325.550781 C 297.597656 339.503906 281.34375 350.464844 263.246094 358.117188 C 244.507812 366.046875 224.597656 370.066406 204.082031 370.066406 Z M 204.082031 81.660156 C 128.863281 81.660156 67.664062 142.855469 67.664062 218.078125 C 67.664062 293.300781 128.863281 354.496094 204.082031 354.496094 C 279.304688 354.496094 340.5 293.300781 340.5 218.078125 C 340.5 142.855469 279.304688 81.660156 204.082031 81.660156 " fill-opacity="1" fill-rule="evenodd"/><path fill="#ffffff" d="M 204.082031 106.84375 C 199.785156 106.84375 196.296875 103.351562 196.296875 99.054688 L 196.296875 73.878906 C 196.296875 69.582031 199.785156 66.097656 204.082031 66.097656 C 208.386719 66.097656 211.871094 69.582031 211.871094 73.878906 L 211.871094 99.054688 C 211.871094 103.351562 208.386719 106.84375 204.082031 106.84375 " fill-opacity="1" fill-rule="evenodd"/><path fill="#ffffff" d="M 144.582031 122.785156 C 141.890625 122.785156 139.273438 121.390625 137.832031 118.894531 L 125.246094 97.09375 C 123.089844 93.371094 124.367188 88.609375 128.089844 86.453125 C 131.8125 84.304688 136.574219 85.582031 138.726562 89.304688 L 151.3125 111.109375 C 153.460938 114.832031 152.191406 119.59375 148.460938 121.746094 C 147.238281 122.449219 145.902344 122.785156 144.582031 122.785156 " fill-opacity="1" fill-rule="evenodd"/><path fill="#ffffff" d="M 101 166.355469 C 99.679688 166.355469 98.34375 166.015625 97.113281 165.308594 L 75.308594 152.722656 C 71.589844 150.574219 70.3125 145.8125 72.460938 142.085938 C 74.613281 138.363281 79.375 137.085938 83.097656 139.242188 L 104.898438 151.828125 C 108.621094 153.976562 109.898438 158.738281 107.75 162.457031 C 106.304688 164.957031 103.691406 166.355469 101 166.355469 " fill-opacity="1" fill-rule="evenodd"/><path fill="#ffffff" d="M 85.058594 225.867188 L 59.882812 225.867188 C 55.582031 225.867188 52.097656 222.382812 52.097656 218.078125 C 52.097656 213.78125 55.582031 210.292969 59.882812 210.292969 L 85.058594 210.292969 C 89.359375 210.292969 92.847656 213.78125 92.847656 218.078125 C 92.847656 222.382812 89.359375 225.867188 85.058594 225.867188 " fill-opacity="1" fill-rule="evenodd"/><path fill="#ffffff" d="M 79.210938 297.96875 C 76.519531 297.96875 73.90625 296.574219 72.460938 294.078125 C 70.3125 290.351562 71.589844 285.59375 75.308594 283.441406 L 97.113281 270.851562 C 100.835938 268.699219 105.597656 269.972656 107.746094 273.699219 C 109.898438 277.421875 108.621094 282.183594 104.898438 284.332031 L 83.097656 296.921875 C 81.871094 297.628906 80.53125 297.96875 79.210938 297.96875 " fill-opacity="1" fill-rule="evenodd"/><path fill="#ffffff" d="M 131.976562 350.75 C 130.65625 350.75 129.320312 350.410156 128.089844 349.703125 C 124.367188 347.554688 123.089844 342.792969 125.246094 339.070312 L 137.832031 317.269531 C 139.980469 313.542969 144.742188 312.269531 148.460938 314.417969 C 152.191406 316.566406 153.460938 321.328125 151.3125 325.050781 L 138.726562 346.859375 C 137.285156 349.355469 134.667969 350.75 131.976562 350.75 " fill-opacity="1" fill-rule="evenodd"/><path fill="#ffffff" d="M 204.082031 370.066406 C 199.785156 370.066406 196.296875 366.582031 196.296875 362.285156 L 196.296875 337.101562 C 196.296875 332.804688 199.785156 329.320312 204.082031 329.320312 C 208.386719 329.320312 211.871094 332.804688 211.871094 337.101562 L 211.871094 362.285156 C 211.871094 366.582031 208.386719 370.066406 204.082031 370.066406 " fill-opacity="1" fill-rule="evenodd"/><path fill="#ffffff" d="M 276.191406 350.75 C 273.5 350.75 270.886719 349.355469 269.445312 346.859375 L 256.855469 325.050781 C 254.707031 321.328125 255.984375 316.566406 259.703125 314.417969 C 263.433594 312.265625 268.1875 313.542969 270.335938 317.269531 L 282.925781 339.070312 C 285.074219 342.792969 283.796875 347.554688 280.078125 349.703125 C 278.851562 350.410156 277.511719 350.75 276.191406 350.75 " fill-opacity="1" fill-rule="evenodd"/><path fill="#ffffff" d="M 328.957031 297.96875 C 327.636719 297.96875 326.296875 297.628906 325.070312 296.921875 L 303.269531 284.332031 C 299.546875 282.183594 298.273438 277.421875 300.421875 273.699219 C 302.570312 269.972656 307.332031 268.699219 311.054688 270.851562 L 332.859375 283.441406 C 336.578125 285.59375 337.855469 290.351562 335.707031 294.078125 C 334.265625 296.574219 331.648438 297.96875 328.957031 297.96875 " fill-opacity="1" fill-rule="evenodd"/><path fill="#ffffff" d="M 348.289062 225.867188 L 323.105469 225.867188 C 318.808594 225.867188 315.324219 222.382812 315.324219 218.078125 C 315.324219 213.78125 318.808594 210.292969 323.105469 210.292969 L 348.289062 210.292969 C 352.585938 210.292969 356.070312 213.78125 356.070312 218.078125 C 356.070312 222.382812 352.585938 225.867188 348.289062 225.867188 " fill-opacity="1" fill-rule="evenodd"/><path fill="#ffffff" d="M 307.167969 166.355469 C 304.480469 166.355469 301.863281 164.957031 300.421875 162.457031 C 298.269531 158.738281 299.546875 153.976562 303.269531 151.828125 L 325.070312 139.242188 C 328.796875 137.085938 333.554688 138.363281 335.707031 142.085938 C 337.855469 145.8125 336.578125 150.570312 332.859375 152.722656 L 311.054688 165.308594 C 309.828125 166.015625 308.488281 166.355469 307.167969 166.355469 " fill-opacity="1" fill-rule="evenodd"/><path fill="#ffffff" d="M 263.589844 122.785156 C 262.269531 122.785156 260.929688 122.453125 259.703125 121.746094 C 255.984375 119.597656 254.707031 114.832031 256.855469 111.109375 L 269.445312 89.304688 C 271.59375 85.582031 276.355469 84.304688 280.078125 86.453125 C 283.796875 88.609375 285.074219 93.371094 282.925781 97.09375 L 270.335938 118.894531 C 268.894531 121.390625 266.277344 122.785156 263.589844 122.785156 " fill-opacity="1" fill-rule="evenodd"/><path fill="#ffffff" d="M 142.265625 448.757812 L 142.253906 448.757812 C 137.953125 448.757812 134.46875 445.273438 134.46875 440.96875 L 134.46875 397.664062 C 134.46875 393.367188 137.953125 389.882812 142.253906 389.882812 C 146.550781 389.882812 150.035156 393.367188 150.035156 397.664062 L 150.035156 440.648438 C 150.042969 440.757812 150.046875 440.863281 150.046875 440.96875 C 150.046875 445.265625 146.566406 448.757812 142.265625 448.757812 " fill-opacity="1" fill-rule="evenodd"/><path fill="#ffffff" d="M 265.917969 448.757812 C 261.617188 448.757812 258.125 445.273438 258.125 440.96875 C 258.125 440.863281 258.125 440.753906 258.132812 440.648438 L 258.132812 397.664062 C 258.132812 393.367188 261.617188 389.882812 265.917969 389.882812 C 270.214844 389.882812 273.699219 393.367188 273.699219 397.664062 L 273.699219 440.964844 C 273.699219 445.265625 270.214844 448.757812 265.917969 448.757812 " fill-opacity="1" fill-rule="evenodd"/><g clip-path="url(#d840dbaef0)"><path fill="#ffffff" d="M 231.90625 518.621094 L 176.261719 518.621094 C 171.964844 518.621094 168.480469 515.136719 168.480469 510.832031 L 168.480469 449.238281 C 168.480469 444.941406 171.964844 441.457031 176.261719 441.457031 C 180.566406 441.457031 184.050781 444.941406 184.050781 449.238281 L 184.050781 503.050781 L 224.117188 503.050781 L 224.117188 449.238281 C 224.117188 444.941406 227.601562 441.457031 231.90625 441.457031 C 236.203125 441.457031 239.6875 444.941406 239.6875 449.238281 L 239.6875 510.832031 C 239.6875 515.136719 236.203125 518.621094 231.90625 518.621094 " fill-opacity="1" fill-rule="evenodd"/></g><path fill="#ffffff" d="M 204.082031 245.710938 C 188.847656 245.710938 176.453125 233.316406 176.453125 218.078125 C 176.453125 202.84375 188.847656 190.449219 204.082031 190.449219 C 219.320312 190.449219 231.714844 202.84375 231.714844 218.078125 C 231.714844 233.316406 219.320312 245.710938 204.082031 245.710938 Z M 204.082031 206.015625 C 197.433594 206.015625 192.019531 211.429688 192.019531 218.078125 C 192.019531 224.730469 197.433594 230.140625 204.082031 230.140625 C 210.734375 230.140625 216.148438 224.730469 216.148438 218.078125 C 216.148438 211.429688 210.734375 206.015625 204.082031 206.015625 " fill-opacity="1" fill-rule="evenodd"/><path fill="#ffffff" d="M 144.890625 285.0625 C 142.898438 285.0625 140.910156 284.300781 139.386719 282.78125 C 136.347656 279.746094 136.347656 274.8125 139.386719 271.773438 L 184.546875 226.609375 C 187.585938 223.570312 192.511719 223.570312 195.550781 226.609375 C 198.59375 229.652344 198.59375 234.582031 195.550781 237.617188 L 150.394531 282.78125 C 148.875 284.300781 146.882812 285.0625 144.890625 285.0625 " fill-opacity="1" fill-rule="evenodd"/><path fill="#ffffff" d="M 218.121094 211.835938 C 216.125 211.835938 214.136719 211.074219 212.613281 209.554688 C 209.574219 206.511719 209.574219 201.585938 212.613281 198.546875 L 228.316406 182.839844 C 231.355469 179.800781 236.28125 179.800781 239.320312 182.839844 C 242.363281 185.882812 242.363281 190.8125 239.320312 193.847656 L 223.621094 209.554688 C 222.105469 211.074219 220.109375 211.835938 218.121094 211.835938 " fill-opacity="1" fill-rule="evenodd"/><g clip-path="url(#b182d53881)"><path fill="#ffffff" d="M 411.6875 518.566406 C 401.359375 518.566406 391.121094 516.363281 381.253906 512.015625 C 371.957031 507.917969 363.472656 502.148438 356.03125 494.867188 C 340.871094 480.035156 332.179688 460.871094 332.179688 442.292969 C 332.179688 427.160156 336.320312 412.210938 344.480469 397.851562 C 350.171875 387.804688 357.332031 378.835938 364.253906 370.164062 C 370.808594 361.957031 377.585938 353.46875 382.871094 344.289062 C 392.195312 328.140625 400.8125 304.300781 406.515625 278.882812 C 407.058594 276.460938 409.207031 274.742188 411.6875 274.742188 C 414.167969 274.742188 416.316406 276.460938 416.859375 278.882812 C 422.566406 304.300781 431.183594 328.140625 440.503906 344.285156 C 445.632812 353.214844 451.996094 361.3125 459.175781 370.214844 C 461.011719 372.496094 460.652344 375.832031 458.375 377.671875 C 456.09375 379.507812 452.757812 379.148438 450.921875 376.871094 C 443.453125 367.609375 436.828125 359.164062 431.316406 349.574219 C 424.023438 336.945312 417.164062 319.964844 411.6875 301.25 C 406.210938 319.964844 399.351562 336.945312 392.054688 349.585938 C 386.375 359.457031 379.339844 368.261719 372.539062 376.78125 C 365.566406 385.511719 358.980469 393.761719 353.703125 403.082031 C 346.453125 415.832031 342.78125 429.019531 342.78125 442.292969 C 342.78125 476.050781 376.269531 507.964844 411.6875 507.964844 C 437.328125 507.964844 462.554688 491.648438 474.457031 467.363281 C 475.746094 464.734375 478.921875 463.648438 481.550781 464.9375 C 484.179688 466.226562 485.265625 469.402344 483.976562 472.03125 C 477.621094 484.996094 467.28125 496.710938 454.859375 505.011719 C 441.589844 513.878906 426.664062 518.566406 411.6875 518.566406 Z M 411.6875 518.566406 " fill-opacity="1" fill-rule="nonzero"/></g><g clip-path="url(#dcc7a282c8)"><path fill="#ffffff" d="M 499.132812 460.261719 C 489.050781 460.261719 484.132812 453.109375 480.179688 447.363281 C 476.53125 442.058594 474.257812 439.058594 469.960938 439.058594 C 465.671875 439.058594 463.402344 442.058594 459.757812 447.363281 C 455.804688 453.109375 450.890625 460.261719 440.8125 460.261719 C 430.742188 460.261719 425.828125 453.109375 421.882812 447.359375 C 418.242188 442.058594 415.972656 439.058594 411.6875 439.058594 C 408.761719 439.058594 406.386719 436.6875 406.386719 433.757812 C 406.386719 430.832031 408.761719 428.457031 411.6875 428.457031 C 421.761719 428.457031 426.671875 435.609375 430.621094 441.359375 C 434.261719 446.660156 436.53125 449.660156 440.8125 449.660156 C 445.101562 449.660156 447.375 446.660156 451.019531 441.355469 C 454.96875 435.609375 459.886719 428.457031 469.960938 428.457031 C 480.042969 428.457031 484.960938 435.609375 488.914062 441.355469 C 492.5625 446.660156 494.835938 449.660156 499.132812 449.660156 C 503.429688 449.660156 505.703125 446.660156 509.351562 441.355469 C 513.304688 435.609375 518.222656 428.457031 528.300781 428.457031 C 531.230469 428.457031 533.601562 430.832031 533.601562 433.757812 C 533.601562 436.6875 531.230469 439.058594 528.300781 439.058594 C 524.007812 439.058594 521.734375 442.058594 518.085938 447.363281 C 514.132812 453.109375 509.210938 460.261719 499.132812 460.261719 Z M 499.132812 460.261719 " fill-opacity="1" fill-rule="nonzero"/></g><g clip-path="url(#3cf3566804)"><path fill="#ffffff" d="M 499.132812 417.855469 C 489.050781 417.855469 484.132812 410.707031 480.179688 404.960938 C 476.53125 399.65625 474.257812 396.652344 469.960938 396.652344 C 465.671875 396.652344 463.402344 399.65625 459.757812 404.957031 C 455.804688 410.703125 450.890625 417.855469 440.8125 417.855469 C 430.742188 417.855469 425.828125 410.703125 421.882812 404.957031 C 418.242188 399.652344 415.972656 396.652344 411.6875 396.652344 C 408.761719 396.652344 406.386719 394.28125 406.386719 391.355469 C 406.386719 388.425781 408.761719 386.054688 411.6875 386.054688 C 421.761719 386.054688 426.671875 393.207031 430.621094 398.953125 C 434.261719 404.253906 436.53125 407.253906 440.8125 407.253906 C 445.101562 407.253906 447.375 404.253906 451.019531 398.953125 C 454.96875 393.207031 459.886719 386.054688 469.960938 386.054688 C 480.042969 386.054688 484.960938 393.203125 488.914062 398.949219 C 492.5625 404.253906 494.835938 407.253906 499.132812 407.253906 C 503.429688 407.253906 505.703125 404.253906 509.351562 398.949219 C 513.304688 393.203125 518.222656 386.054688 528.300781 386.054688 C 531.230469 386.054688 533.601562 388.425781 533.601562 391.355469 C 533.601562 394.28125 531.230469 396.652344 528.300781 396.652344 C 524.007812 396.652344 521.734375 399.65625 518.085938 404.957031 C 514.132812 410.707031 509.210938 417.855469 499.132812 417.855469 Z M 499.132812 417.855469 " fill-opacity="1" fill-rule="nonzero"/></g><g clip-path="url(#dff032165d)"><path fill="#ffffff" d="M 499.132812 460.261719 C 489.050781 460.261719 484.132812 453.109375 480.179688 447.363281 C 476.53125 442.058594 474.257812 439.058594 469.960938 439.058594 C 465.671875 439.058594 463.402344 442.058594 459.757812 447.363281 C 455.804688 453.109375 450.890625 460.261719 440.8125 460.261719 C 430.742188 460.261719 425.828125 453.109375 421.882812 447.359375 C 418.242188 442.058594 415.972656 439.058594 411.6875 439.058594 C 408.761719 439.058594 406.386719 436.6875 406.386719 433.757812 C 406.386719 430.832031 408.761719 428.457031 411.6875 428.457031 C 421.761719 428.457031 426.671875 435.609375 430.621094 441.359375 C 434.261719 446.660156 436.53125 449.660156 440.8125 449.660156 C 445.101562 449.660156 447.375 446.660156 451.019531 441.355469 C 454.96875 435.609375 459.886719 428.457031 469.960938 428.457031 C 480.042969 428.457031 484.960938 435.609375 488.914062 441.355469 C 492.5625 446.660156 494.835938 449.660156 499.132812 449.660156 C 503.429688 449.660156 505.703125 446.660156 509.351562 441.355469 C 513.304688 435.609375 518.222656 428.457031 528.300781 428.457031 C 531.230469 428.457031 533.601562 430.832031 533.601562 433.757812 C 533.601562 436.6875 531.230469 439.058594 528.300781 439.058594 C 524.007812 439.058594 521.734375 442.058594 518.085938 447.363281 C 514.132812 453.109375 509.210938 460.261719 499.132812 460.261719 Z M 499.132812 460.261719 " fill-opacity="1" fill-rule="nonzero"/></g><g clip-path="url(#2e6abf2e6b)"><path fill="#ffffff" d="M 499.132812 417.855469 C 489.050781 417.855469 484.132812 410.707031 480.179688 404.960938 C 476.53125 399.65625 474.257812 396.652344 469.960938 396.652344 C 465.671875 396.652344 463.402344 399.65625 459.757812 404.957031 C 455.804688 410.703125 450.890625 417.855469 440.8125 417.855469 C 430.742188 417.855469 425.828125 410.703125 421.882812 404.957031 C 418.242188 399.652344 415.972656 396.652344 411.6875 396.652344 C 408.761719 396.652344 406.386719 394.28125 406.386719 391.355469 C 406.386719 388.425781 408.761719 386.054688 411.6875 386.054688 C 421.761719 386.054688 426.671875 393.207031 430.621094 398.953125 C 434.261719 404.253906 436.53125 407.253906 440.8125 407.253906 C 445.101562 407.253906 447.375 404.253906 451.019531 398.953125 C 454.96875 393.207031 459.886719 386.054688 469.960938 386.054688 C 480.042969 386.054688 484.960938 393.203125 488.914062 398.949219 C 492.5625 404.253906 494.835938 407.253906 499.132812 407.253906 C 503.429688 407.253906 505.703125 404.253906 509.351562 398.949219 C 513.304688 393.203125 518.222656 386.054688 528.300781 386.054688 C 531.230469 386.054688 533.601562 388.425781 533.601562 391.355469 C 533.601562 394.28125 531.230469 396.652344 528.300781 396.652344 C 524.007812 396.652344 521.734375 399.65625 518.085938 404.957031 C 514.132812 410.707031 509.210938 417.855469 499.132812 417.855469 Z M 499.132812 417.855469 " fill-opacity="1" fill-rule="nonzero"/></g></svg>